<svg width="12" height="12" viewBox="0 0 12 12" fill="none" xmlns="http://www.w3.org/2000/svg">
<path fill-rule="evenodd" clip-rule="evenodd" d="M0 6C0 9.31371 2.68629 12 6 12C9.31371 12 12 9.31371 12 6C12 2.68629 9.31371 0 6 0C2.68629 0 0 2.68629 0 6ZM10.8263 6C10.8263 8.6655 8.6655 10.8263 6 10.8263C3.3345 10.8263 1.17369 8.6655 1.17369 6C1.17369 3.3345 3.3345 1.17369 6 1.17369C8.6655 1.17369 10.8263 3.3345 10.8263 6Z" fill="#DFB481"/>
<path fill-rule="evenodd" clip-rule="evenodd" d="M5.99994 8.34358C5.99994 8.34358 3.69314 10.041 3.03338 9.59995C2.37361 9.15894 3.4154 6.61597 3.4154 6.61597C3.4154 6.61597 0.956309 5.09832 1.19994 4.40847C1.44357 3.71861 4.40261 3.82063 4.40261 3.82063C4.40261 3.82063 5.20127 1.19995 5.99994 1.19995C6.79861 1.19995 7.59727 3.82063 7.59727 3.82063C7.59727 3.82063 10.5505 3.7022 10.7999 4.40847C11.0494 5.11473 8.58448 6.61597 8.58448 6.61597C8.58448 6.61597 9.60178 9.1753 8.9665 9.59995C8.33122 10.0246 5.99994 8.34358 5.99994 8.34358Z" fill="#DFB481"/>
</svg>
