<svg width="95" height="55" viewBox="0 0 95 55" fill="none" xmlns="http://www.w3.org/2000/svg">
<path class="oval" d="M94.5 44.5C94.5 45.061 94.2451 45.6531 93.668 46.2765C93.0886 46.9024 92.2098 47.5303 91.0356 48.1439C88.6884 49.3707 85.2592 50.4904 80.9797 51.4364C72.4287 53.3266 60.5916 54.5 47.5 54.5C34.4084 54.5 22.5713 53.3266 14.0203 51.4364C9.74083 50.4904 6.31157 49.3707 3.96438 48.1439C2.79023 47.5303 1.91142 46.9024 1.33195 46.2765C0.754903 45.6531 0.5 45.061 0.5 44.5C0.5 43.939 0.754903 43.3469 1.33195 42.7235C1.91142 42.0976 2.79023 41.4697 3.96438 40.8561C6.31157 39.6293 9.74083 38.5096 14.0203 37.5636C22.5713 35.6734 34.4084 34.5 47.5 34.5C60.5916 34.5 72.4287 35.6734 80.9797 37.5636C85.2592 38.5096 88.6884 39.6293 91.0356 40.8561C92.2098 41.4697 93.0886 42.0976 93.668 42.7235C94.2451 43.3469 94.5 43.939 94.5 44.5Z" fill="#71997F" stroke="#71997F"/>
<path class="semi-circle" d="M93 44C93 20.804 72.629 2 47.5 2C22.371 2 2 20.804 2 44" stroke="#71997F" stroke-width="4"/>
</svg>
