<svg width="95" height="55" viewBox="0 0 95 55" fill="none" xmlns="http://www.w3.org/2000/svg">
<path class="oval" d="M93 44.5C93 44.5692 92.9772 44.8146 92.5673 45.2575C92.1476 45.7108 91.432 46.2443 90.3408 46.8146C88.1629 47.9528 84.8802 49.038 80.6559 49.9718C72.2397 51.8322 60.5163 53 47.5 53C34.4837 53 22.7603 51.8322 14.3441 49.9718C10.1198 49.038 6.83705 47.9528 4.65915 46.8146C3.568 46.2443 2.85236 45.7108 2.43271 45.2575C2.02275 44.8146 2 44.5692 2 44.5C2 44.4308 2.02275 44.1854 2.43271 43.7425C2.85236 43.2892 3.568 42.7557 4.65915 42.1854C6.83705 41.0472 10.1198 39.962 14.3441 39.0282C22.7603 37.1678 34.4837 36 47.5 36C60.5163 36 72.2397 37.1678 80.6559 39.0282C84.8802 39.962 88.1629 41.0472 90.3408 42.1854C91.432 42.7557 92.1476 43.2892 92.5673 43.7425C92.9772 44.1854 93 44.4308 93 44.5Z" stroke="#71997F" stroke-width="4"/>
<path class="semi-circle" d="M47.5 34C22.371 34 2 38.4772 2 44C2 20.804 22.371 2 47.5 2C72.629 2 93 20.804 93 44C93 38.4772 72.629 34 47.5 34Z" fill="#71997F" stroke="#71997F" stroke-width="4"/>
</svg>
