<svg width="12" height="12" viewBox="0 0 12 12" fill="none" xmlns="http://www.w3.org/2000/svg">
<path fill-rule="evenodd" clip-rule="evenodd" d="M11.5034 9.51349C11.8745 10.18 11.3925 10.9999 10.6297 10.9999H1.3701C0.607236 10.9999 0.125306 10.18 0.496348 9.51349L5.12614 1.19648C5.50735 0.511656 6.49241 0.511656 6.87363 1.19648L11.5034 9.51349ZM5.68255 3.69721H6.42057V6.61444L6.26941 8.09408H5.83371L5.68255 6.61444V3.69721ZM5.66922 8.8381C5.57733 8.92497 5.53139 9.04407 5.53139 9.1954C5.53139 9.34112 5.57733 9.45882 5.66922 9.54849C5.7611 9.63817 5.8841 9.683 6.03823 9.683C6.19828 9.683 6.32573 9.63817 6.42057 9.54849C6.51542 9.45882 6.56284 9.34112 6.56284 9.1954C6.56284 9.04407 6.51542 8.92497 6.42057 8.8381C6.32573 8.75123 6.19828 8.70779 6.03823 8.70779C5.8841 8.70779 5.7611 8.75123 5.66922 8.8381Z" fill="#DD1919"/>
</svg>
