<?xml version="1.0" encoding="UTF-8"?>
<svg viewBox="0 0 335 63" version="1.1" xmlns="http://www.w3.org/2000/svg" xmlns:xlink="http://www.w3.org/1999/xlink">
    <!-- Generator: Sketch 46.1 (44463) - http://www.bohemiancoding.com/sketch -->
    <title>Catch Guide Banner</title>
    <desc>Created with Sketch.</desc>
    <defs></defs>
    <g id="Page-1" stroke="none" stroke-width="1" fill="none" fill-rule="evenodd">
        <g id="Catch-Guide-Banner">
            <path d="M44.8855843,19.6421853 C46.0075377,19.175637 47.1811164,18.8007126 48.4015599,18.5158498 C50.5841368,18.0064162 52.84936,17.8502434 55.1716649,18.0323925 C57.8197421,18.2400934 60.390496,19.0180835 62.8231109,20.3068463 C63.1783883,20.494168 63.5252656,20.6892175 63.8634555,20.8920779 L63.8064474,15.0390076 L68.2646048,14.9799618 L68.1458453,4.10176487 L90.6481674,4.10176487 L90.7646538,14.6545002 L100.907947,14.531488 L100.628523,22.5943288 C101.609746,21.9114781 102.653582,21.3133251 103.755314,20.8026112 C106.272417,19.6357947 108.979137,19.0211157 111.805681,18.9564535 L111.991198,18.9543318 C112.730195,18.9543318 113.47113,18.9782298 114.21378,19.0259056 L116.713459,14.2632477 L121.839351,17.0150382 L121.839351,3.79578897 L148.045133,3.637836 L147.946505,17.5862688 C148.703069,17.6622118 149.465791,17.7850306 150.232874,17.9532203 C153.85396,18.7219457 156.955456,20.5001096 159.20916,23.2921441 C161.024331,25.5408947 162.280569,28.2047761 163.007709,31.1961132 C163.561786,33.475498 163.882205,35.9324979 163.98368,38.5699627 L166.327977,38.6304683 L166.327977,60.206154 L150.925807,60.5042977 L150.925807,61.7554267 L122.057079,61.229479 L121.928143,58.9971939 C121.84701,59.0367455 121.765634,59.0757499 121.684017,59.1142051 C118.774191,60.4852097 115.714012,61.1911135 112.579067,61.1911135 C109.753266,61.1911135 107.010194,60.6054227 104.421858,59.4511488 C102.698762,58.6827306 101.108442,57.7108724 99.667246,56.543747 C99.1964866,57.0678785 98.6896967,57.5588079 98.1470399,58.0139963 C96.4354625,59.4496922 94.4563471,60.4864144 92.2825292,61.1115904 C90.4437883,61.6404004 88.532986,61.9011964 86.5710453,61.9011964 C84.4006287,61.9011964 82.2593756,61.515689 80.1855992,60.7628503 C78.8320678,60.2714805 77.5549364,59.618795 76.3643453,58.8150485 L76.46978,61.3886577 L50.6345682,62.0554562 L50.6345682,61.4151666 C49.24563,61.2372622 47.8731957,60.9138643 46.5260926,60.4462907 C44.2336785,59.6506037 42.1608683,58.4543539 40.3552728,56.886518 C39.0987152,57.6837984 37.7493657,58.3500359 36.3161195,58.8808308 C33.3816375,59.9676001 29.9636087,60.5709732 25.9987425,60.7680232 C23.3876532,60.890268 20.7068959,60.5383041 17.9679404,59.7505982 C15.0018338,58.8975651 12.2454509,57.4499932 9.73847169,55.4546925 C7.18905372,53.4256147 5.05783558,50.8455336 3.33954432,47.7769005 C1.49618495,44.484913 0.455228573,40.6618474 0.14003383,36.4285769 C-0.263661558,31.5015752 0.198668745,27.020715 1.61562943,23.0215361 C2.9571678,19.2352263 4.82759669,15.9507532 7.25146092,13.2272477 C9.66098952,10.5198501 12.4368093,8.4097395 15.550492,6.96092847 C18.5542762,5.5632537 21.5670805,4.76756607 24.5740423,4.64145192 C25.2165394,4.62269634 25.7389041,4.61792744 26.254376,4.62332407 L27.6966426,0.449533288 L49.655605,7.53120367 L44.8855843,19.6421853 Z M218.266498,18.5349372 L226.69062,18.5869589 L226.638795,16.4481614 L245.197184,17.0108257 C245.690993,15.2850076 246.535874,13.6754609 247.711087,12.2498634 C250.033315,9.43287277 253.32959,7.88887357 256.96318,7.88887357 C260.011546,7.88887357 262.876393,8.88505736 265.264405,10.7880021 C267.792525,12.8025944 269.291812,15.6046862 269.711477,18.7450438 L270.099626,18.7347078 L270.111584,22.7186476 C271.100021,22.0083632 272.159039,21.3797309 273.283267,20.8343708 C275.403025,19.8060812 277.688027,19.1942172 280.097175,18.979643 L280.097175,2.89774528 L306.949728,3.35074819 L306.949728,20.4066561 C307.517837,20.1550539 308.098109,19.9297038 308.689961,19.7311222 C310.906016,18.9875785 313.124084,18.5992904 315.328209,18.5992904 C317.24115,18.5992904 319.223721,18.9345532 321.318174,19.5581138 C323.965858,20.3463823 326.361852,21.7715096 328.456835,23.7419931 C330.611673,25.7687739 332.250231,28.3652525 333.452321,31.4507424 C334.720349,34.7054817 335.146547,38.4520952 334.881817,42.7156305 L334.444003,49.7667419 L335,50.4834924 L330.356069,55.6103376 C328.226059,57.9618425 325.694608,59.6790415 322.817625,60.6316421 C320.423361,61.4244094 317.891956,61.7817585 315.255954,61.7214541 C312.595676,61.6591803 310.00658,61.1253956 307.534121,60.1299069 C306.972942,59.9039588 306.425221,59.6549545 305.891564,59.3832697 L305.891564,62.3492098 L280.030057,63 L280.059578,61.0091455 C278.208387,60.8576732 276.389393,60.4519847 274.6226,59.7967796 C274.254694,59.6603436 273.89196,59.5143 273.534556,59.3587309 L273.534556,60.7177249 L254.652031,60.7177249 L254.604074,62.5521057 L230.058837,62.5521057 L230.123306,61.1028293 C228.969771,60.9516419 227.820887,60.6854508 226.681358,60.3100612 C225.290385,59.8518395 223.97096,59.2255345 222.73463,58.440647 L222.604652,61.5806427 L196.952382,62.2513179 L197.020993,61.2430077 C196.877217,61.2464886 196.733892,61.2487243 196.591016,61.2497079 C193.745307,61.3470532 190.87779,60.899401 188.02118,59.9409345 C185.039867,58.9406273 182.298169,57.3846086 179.835847,55.3095699 C177.304778,53.176598 175.214967,50.4967247 173.560495,47.3325511 C171.814558,43.993452 170.843551,40.1676546 170.582487,35.9607051 C170.2269,30.7452079 170.841541,26.0512758 172.535818,21.9298438 C174.128947,18.0544581 176.30384,14.7429491 179.072527,12.0698023 C181.753647,9.48120059 184.777654,7.5083044 188.107887,6.20153911 C191.224535,4.97858314 194.260385,4.2840791 197.220042,4.1672507 C197.962699,4.14643752 198.59352,4.14434425 199.212063,4.15801615 L200.699167,7.10542736e-15 L222.725006,7.11136049 L218.266498,18.5349372 Z" id="Combined-Shape" fill="#C09279"></path>
            <path d="M38.7174476,11.4085447 L34.7741104,21.3364486 C33.6362263,20.396524 32.3119845,19.6132653 30.8013453,18.9866489 C29.290706,18.3600325 27.5348595,18.1446363 25.533753,18.3404539 C24.0034951,18.497108 22.5713521,18.9866448 21.2372811,19.8090788 C19.9032101,20.6315128 18.7555338,21.7182843 17.794218,23.0694259 C16.8329021,24.4205675 16.1070214,26.0066665 15.6165541,27.8277704 C15.1260868,29.6488743 14.9593304,31.6363933 15.11628,33.7903872 C15.3124669,35.944381 15.8029268,37.716504 16.5876745,39.1068091 C17.3724221,40.4971142 18.2944868,41.5838857 19.3538961,42.3671562 C20.4133054,43.1504267 21.5217449,43.6987078 22.6792477,44.012016 C23.8367505,44.3253242 24.8667163,44.481976 25.7691761,44.481976 C27.4956209,44.5211395 29.2220399,44.2469989 30.9484847,43.6595461 C32.6749296,43.0720932 34.2247829,42.1126012 35.5980913,40.7810414 L38.5997361,46.0680908 C37.1871903,47.6737953 35.441153,48.8584742 33.3615717,49.6221629 C31.2819904,50.3858516 28.6531252,50.8460161 25.4748972,51.0026702 C23.7876898,51.0809973 21.9827972,50.8460197 20.0601655,50.2977303 C18.1375337,49.749441 16.3326412,48.8095305 14.6454337,47.4779706 C12.9582263,46.1464108 11.5064649,44.4036601 10.290106,42.2496662 C9.07374718,40.0956724 8.34786649,37.4521741 8.1124422,34.3190921 C7.79854313,30.5202302 8.14186508,27.2207528 9.14241834,24.4205607 C10.1429716,21.6203687 11.4868318,19.2803832 13.1740392,17.400534 C14.8612467,15.5206849 16.7446128,14.1010284 18.8241941,13.141522 C20.9037754,12.1820157 22.8852335,11.6631068 24.7686278,11.5847797 C26.1811736,11.5456162 27.5054154,11.5945699 28.741393,11.7316422 C29.9773705,11.8687145 30.9680996,12.0155755 31.7136099,12.1722296 L32.6553023,9.46995995 L38.7174476,11.4085447 Z M67.8752952,51.8251001 L58.6937935,52.0600801 L58.6937935,49.8277704 C57.5559094,50.9243491 56.0943389,51.5607468 54.3090379,51.7369826 C52.523737,51.9132185 50.7776997,51.7076131 49.0708736,51.1201602 C47.3640474,50.5327073 45.9024768,49.5830061 44.686118,48.271028 C43.4697591,46.95905 42.8419704,45.3435788 42.802733,43.4245661 C42.7634956,40.6439558 43.6561327,38.4116684 45.480671,36.7276368 C47.3052093,35.0436053 49.6103709,34.1428577 52.3962251,34.0253672 C53.6910587,33.9470401 54.838735,34.0547382 55.8392882,34.3484646 C56.8398415,34.6421911 57.6343866,35.0044482 58.2229473,35.435247 C58.2229473,34.2211777 57.8992437,33.1539877 57.2518269,32.2336449 C56.6044101,31.313302 55.7412006,30.6964858 54.6621726,30.3831776 C53.5831446,30.0698694 52.3471856,30.0992416 50.9542585,30.4712951 C49.5613314,30.8433485 48.0997608,31.675561 46.5695029,32.9679573 L43.7444255,28.5620828 C44.4506984,27.8571393 45.3531446,27.1913694 46.4517914,26.564753 C47.5504381,25.9381366 48.7765879,25.4681814 50.1302776,25.1548732 C51.4839673,24.841565 52.9161103,24.7436576 54.4267495,24.8611482 C55.9373887,24.9786388 57.4381961,25.4290126 58.9292167,26.212283 C60.5771867,27.0738806 61.8033365,28.1214892 62.6077029,29.3551402 C63.4120692,30.5887912 63.9711935,32.0182384 64.2850926,33.6435247 C64.5989917,35.268811 64.765748,37.1192598 64.7853667,39.1949266 C64.8049854,41.2705934 64.834413,43.6007881 64.8736504,46.1855808 L67.639872,46.1268358 L67.8752952,51.8251001 Z M58.3995146,44.8344459 L58.2818031,40.5460614 C57.8109545,40.2327532 57.2125934,39.9488219 56.4867018,39.694259 C55.7608102,39.4396961 54.9662651,39.2928351 54.1030427,39.2536716 C52.5335474,39.2536716 51.3564436,39.6159287 50.5716959,40.3404539 C49.7869483,41.0649791 49.4141987,42.0342618 49.4534361,43.2483311 C49.4534361,44.1099287 49.7477121,44.8638152 50.3362728,45.5100134 C50.9248336,46.1562115 51.6605234,46.5967946 52.5433646,46.8317757 C53.4262057,47.0667568 54.3875071,47.0373846 55.4272978,46.7436582 C56.4670884,46.4499318 57.4578174,45.813534 58.3995146,44.8344459 Z M95.6794598,43.4245661 C95.6402224,45.0302706 95.3655648,46.3813919 94.8554788,47.4779706 C94.3453929,48.5745493 93.6783674,49.4655061 92.8543823,50.1508678 C92.0303973,50.8362295 91.0690958,51.335557 89.9704491,51.6488652 C88.8718024,51.9621734 87.714317,52.1188251 86.4979581,52.1188251 C85.2815993,52.1188251 84.0750678,51.9034289 82.8783277,51.4726302 C81.6815875,51.0418314 80.5927665,50.3760615 79.6118319,49.4753004 C78.6308973,48.5745393 77.8363523,47.4290234 77.2281728,46.0387183 C76.6199934,44.6484132 76.3159082,42.9741976 76.3159082,41.0160214 L76.1981967,27.7983979 L72.0194363,27.7983979 L71.9605805,21.8064085 L76.4336198,21.7476636 L76.3159082,11.0560748 L82.4957651,11.0560748 L82.6134767,21.6301736 L92.3835361,21.5126836 L92.2069688,26.564753 L82.6723324,26.682243 L82.8488998,40.3698264 C82.8488998,41.0747699 82.8979458,41.769912 82.9960392,42.4552737 C83.0941327,43.1406354 83.2805075,43.7476609 83.5551691,44.2763685 C83.8298308,44.8050761 84.232008,45.2358684 84.7617126,45.5687583 C85.2914173,45.9016483 85.968252,46.0876723 86.792237,46.1268358 C88.0478333,46.1659993 88.9110427,45.9016495 89.3818913,45.3337784 C89.8527399,44.7659073 90.1077791,44.1882539 90.1470165,43.6008011 C90.2254912,43.0916752 90.1764452,42.7000459 89.999877,42.4259012 C89.8233088,42.1517565 89.6075064,42.0048955 89.3524634,41.9853138 C89.0974205,41.965732 88.8423813,42.0832208 88.5873383,42.3377837 C88.3322953,42.5923466 88.1655389,42.9741853 88.0870642,43.4833111 L83.9083038,41.6622163 C83.9475412,40.6048011 84.3791459,39.5474018 85.203131,38.4899866 C86.027116,37.4325715 87.459259,36.8647089 89.4996029,36.7863818 C91.3829973,36.7080548 92.8936138,37.3346618 94.0314979,38.6662216 C95.169382,39.9977815 95.7186971,41.5838804 95.6794598,43.4245661 Z M125.367009,26.858478 L120.48198,35.611482 C119.618757,34.2799221 118.431844,33.2616858 116.921205,32.5567423 C115.410566,31.8517989 113.948995,31.5384954 112.536449,31.6168224 C110.73153,31.6951495 109.26015,32.3511287 108.122266,33.5847797 C106.984382,34.8184307 106.435067,36.4926463 106.474304,38.6074766 C106.474304,40.7614705 107.092284,42.4846397 108.328261,43.777036 C109.564239,45.0694324 111.006191,45.7547838 112.654161,45.8331108 C113.909757,45.8722743 115.273236,45.5589708 116.744638,44.8931909 C118.216039,44.227411 119.344097,43.3266634 120.128845,42.1909212 L123.365913,46.0093458 C121.75718,47.889195 120.030761,49.2598978 118.186604,50.1214953 C116.342447,50.9830929 114.459081,51.4138852 112.536449,51.4138852 C110.849242,51.4138852 109.230724,51.0712095 107.680848,50.3858478 C106.130971,49.7004861 104.777301,48.7703664 103.619799,47.5954606 C102.462296,46.4205549 101.540231,45.0792243 100.853577,43.5714286 C100.166923,42.0636329 99.8039825,40.4873246 99.7647451,38.8424566 C99.7255078,37.0409345 100.019784,35.3569282 100.647582,33.7903872 C101.27538,32.2238462 102.138589,30.8531434 103.237236,29.6782377 C104.335883,28.5033319 105.630697,27.5732121 107.121718,26.8878505 C108.612738,26.2024888 110.221447,25.8402316 111.947892,25.8010681 C113.046538,25.8010681 114.154978,25.8696032 115.273243,26.0066756 C116.391508,26.1437479 117.441093,26.5255865 118.422027,27.1522029 L120.069989,24.0387183 L125.367009,26.858478 Z M158.173915,50.5914553 L148.992414,50.7676903 C149.070888,48.0262435 149.149362,45.5002341 149.227837,43.1895861 C149.306311,40.8789382 149.276884,38.8620469 149.139553,37.1388518 C149.002222,35.4156567 148.707946,34.0449539 148.256716,33.0267023 C147.805486,32.0084506 147.089415,31.4210066 146.10848,31.2643525 C145.36297,31.1468619 144.646899,31.215397 143.960244,31.4699599 C143.27359,31.7245229 142.645801,32.08678 142.076859,32.5567423 C141.507917,33.0267046 141.007648,33.5749857 140.576037,34.2016021 C140.144426,34.8282185 139.771676,35.4548255 139.457777,36.0814419 L139.28121,46.5380507 L142.753701,46.4205607 L142.753701,51.8251001 L129.746574,51.5901202 L129.452295,46.5380507 L132.689363,46.5380507 L132.983641,16.2256342 L129.981997,16.2843792 L129.981997,10.7036048 L139.810912,10.6448598 L139.6932,27.1522029 C140.556423,26.2122783 141.753145,25.4486011 143.283403,24.8611482 C144.813661,24.2736953 146.559698,24.1953695 148.521567,24.6261682 C150.404962,25.0178035 151.856723,25.8402252 152.876895,27.0934579 C153.897067,28.3466907 154.632757,29.8936268 155.083987,31.7343124 C155.535217,33.5749981 155.790256,35.640843 155.849112,37.9319092 C155.907968,40.2229754 155.917777,42.6021238 155.87854,45.0694259 L158.173915,45.1281709 L158.173915,50.5914553 Z M215.077072,46.3618158 L214.841648,52.0013351 L205.777858,52.2363151 L206.072137,47.9479306 C205.640526,48.574547 205.071592,49.1032466 204.36532,49.5340454 C203.659047,49.9648442 202.864502,50.3271013 201.981661,50.6208278 C201.098819,50.9145542 200.176755,51.1299504 199.215439,51.2670227 C198.254123,51.404095 197.341868,51.4726302 196.478645,51.4726302 C194.595251,51.5509572 192.653029,51.2572352 190.651923,50.5914553 C188.650816,49.9256754 186.806687,48.8878575 185.11948,47.4779706 C183.432272,46.0680837 182.000129,44.2470072 180.823008,42.0146862 C179.645886,39.7823653 178.959242,37.0997041 178.763055,33.9666222 C178.488394,29.9719426 178.939617,26.5549764 180.116738,23.7156208 C181.29386,20.8762653 182.843713,18.5362798 184.766345,16.6955941 C186.688977,14.8549085 188.807764,13.4842057 191.122769,12.5834446 C193.437775,11.6826835 195.595798,11.1931468 197.596905,11.1148198 C199.048688,11.0756562 200.382739,11.1344006 201.599098,11.2910547 C202.815457,11.4477088 203.855232,11.663105 204.718454,11.9372497 L205.777858,9 L212.016571,10.9973298 L208.13209,20.8664887 C206.994205,19.848237 205.552253,19.0160246 203.80619,18.3698264 C202.060126,17.7236283 200.166951,17.4984414 198.126607,17.694259 C196.400162,17.8509131 194.762026,18.3306591 193.212149,19.1335113 C191.662273,19.9363636 190.328222,21.0133444 189.209956,22.364486 C188.091691,23.7156276 187.238291,25.321308 186.64973,27.1815754 C186.061169,29.0418429 185.845367,31.1076878 186.002316,33.3791722 C186.159266,35.7289837 186.669344,37.6675491 187.532567,39.1949266 C188.395789,40.722304 189.386518,41.9265644 190.504783,42.8077437 C191.623049,43.688923 192.751107,44.2959485 193.888991,44.6288385 C195.026875,44.9617284 195.968558,45.1281709 196.714068,45.1281709 C197.969664,45.0890074 199.186005,44.8540297 200.363127,44.423231 C201.540248,43.9924322 202.580023,43.336453 203.482483,42.4552737 C204.384943,41.5740944 205.101014,40.4285785 205.630719,39.0186916 C206.160424,37.6088047 206.425272,35.8856355 206.425272,33.8491322 L201.128252,33.8491322 L201.01054,38.0787717 L195.595808,38.3137517 L195.419241,28.2683578 L212.193138,27.7983979 L212.016571,46.3030708 L215.077072,46.3618158 Z M246.883429,48.3004005 L246.765718,52.76502 L238.702476,52.76502 L238.879043,48.8291055 C238.212008,49.5732124 237.44689,50.1998194 236.583668,50.7089453 C235.720445,51.2180711 234.347157,51.4726302 232.463763,51.4726302 C231.443591,51.4726302 230.394007,51.296397 229.314979,50.9439252 C228.235951,50.5914535 227.235413,50.0529631 226.313334,49.3284379 C225.391256,48.6039127 224.60652,47.7031652 223.959103,46.6261682 C223.311686,45.5491713 222.909509,44.2861666 222.752559,42.8371162 L222.487708,39.0480641 C222.31114,36.5220167 222.340568,33.2225393 222.575992,29.1495327 L219.338924,29.1495327 L219.162357,25.3898531 L228.755849,25.4485981 C228.677374,28.7774977 228.628328,31.5091126 228.60871,33.6435247 C228.589091,35.7779368 228.589091,37.4619431 228.60871,38.6955941 C228.628328,39.9292452 228.647947,40.7908298 228.667565,41.2803738 L228.696993,42.0146862 C228.696993,43.3854096 229.22669,44.4819719 230.286099,45.3044059 C231.345509,46.1268399 232.404902,46.5184693 233.464311,46.4793057 C235.700842,46.3618152 237.231077,45.2652529 238.055062,43.1895861 L238.349341,28.3858478 L235.229985,28.3858478 L235.112273,23.5687583 L244.882333,23.8624833 L244.234919,48.2416555 L246.883429,48.3004005 Z M261.798178,19.1041389 C261.876653,20.3182081 261.513712,21.3462352 260.709346,22.188251 C259.90498,23.0302668 258.894632,23.4512684 257.678273,23.4512684 C256.461915,23.4512684 255.373093,23.1183834 254.411778,22.4526035 C253.450462,21.7868236 252.969811,20.7685872 252.969811,19.3978638 C252.969811,18.1837946 253.35237,17.1166045 254.117499,16.1962617 C254.882628,15.2759189 255.873357,14.8157543 257.089716,14.8157543 C258.306074,14.8157543 259.385086,15.1878022 260.326783,15.9319092 C261.268481,16.6760162 261.758941,17.7334155 261.798178,19.1041389 Z M265.506092,50.9439252 L252.028119,50.9439252 L251.851551,45.6568758 L255.9126,45.4806409 L256.089167,31.8518024 L251.02757,31.6168224 L250.968715,26.0947931 L262.092457,25.8010681 L262.151313,45.2456609 L265.506092,45.3631509 L265.506092,50.9439252 Z M298.960412,10.1748999 L298.960412,15.6969292 L295.370209,15.9319092 L294.958219,47.3017356 L297.901007,47.1842457 L297.901007,52.76502 L288.484083,53 L288.542939,49.0640854 C287.875903,49.7690289 286.93422,50.3075193 285.717861,50.6795728 C284.501502,51.0516262 283.324398,51.2572317 282.186514,51.2963952 C280.617019,51.3355587 279.086784,51.0809996 277.595764,50.5327103 C276.104743,49.9844209 274.770692,49.1913715 273.59357,48.1535381 C272.416449,47.1157046 271.464957,45.8526999 270.739065,44.364486 C270.013174,42.876272 269.630615,41.1922657 269.591377,39.3124166 C269.55214,37.628385 269.816988,35.9639602 270.38593,34.3190921 C270.954873,32.6742241 271.788654,31.2154047 272.887301,29.9425901 C273.985948,28.6697756 275.349426,27.6417485 276.977778,26.858478 C278.606129,26.0752075 280.460068,25.7031596 282.539649,25.7423231 C283.599058,25.7423231 284.67807,25.9185563 285.776717,26.271028 C286.875364,26.6234998 287.758191,27.093455 288.425227,27.6809079 L288.425227,9.99866489 L298.960412,10.1748999 Z M288.24866,34.2016021 C287.503149,33.3400046 286.581085,32.6546532 285.482438,32.1455274 C284.383791,31.6364015 283.402871,31.4210054 282.539649,31.4993324 C281.48024,31.5776595 280.528747,31.8420093 279.685144,32.2923899 C278.84154,32.7427704 278.145087,33.310633 277.595764,33.9959947 C277.04644,34.6813563 276.624645,35.4156614 276.330364,36.1989319 C276.036084,36.9822024 275.888946,37.7654611 275.888946,38.5487316 C275.849709,40.5852349 276.43826,42.3181949 277.654619,43.7476636 C278.870978,45.1771322 280.460068,45.9114373 282.421937,45.9506008 C283.559822,45.9897643 284.629024,45.705833 285.629577,45.0987984 C286.630131,44.4917638 287.483531,43.6399699 288.189804,42.5433912 L288.24866,34.2016021 Z M326.941143,40.7222964 L309.578688,41.2510013 C309.578688,41.9559448 309.765063,42.6021332 310.137818,43.1895861 C310.510573,43.777039 310.981415,44.2959479 311.550357,44.7463284 C312.119299,45.196709 312.756897,45.5491754 313.46317,45.8037383 C314.169443,46.0583012 314.875705,46.2051622 315.581978,46.2443258 C316.60215,46.2834893 317.632116,46.1268375 318.671906,45.7743658 C319.711697,45.4218941 320.545479,44.9127759 321.173277,44.246996 L324.528056,48.5353805 C323.311698,49.8669403 321.958028,50.7774786 320.467008,51.2670227 C318.975987,51.7565668 317.367279,51.9817536 315.640834,51.9425901 C313.953626,51.9034266 312.325299,51.5705416 310.755804,50.9439252 C309.186309,50.3173088 307.813021,49.4067705 306.635899,48.212283 C305.458778,47.0177955 304.546523,45.5393947 303.899106,43.777036 C303.251689,42.0146774 302.986841,39.9586232 303.104553,37.6088117 C303.222265,35.4939814 303.693106,33.6631141 304.517091,32.1161549 C305.341076,30.5691956 306.351424,29.3061909 307.548164,28.3271028 C308.744904,27.3480147 310.049528,26.6235003 311.462073,26.1535381 C312.874619,25.6835758 314.228289,25.4485981 315.523122,25.4485981 C316.582532,25.4485981 317.808681,25.6542036 319.201608,26.0654206 C320.594536,26.4766376 321.88935,27.2403148 323.08609,28.3564753 C324.28283,29.4726358 325.273559,31.0293625 326.058307,33.0267023 C326.843054,35.024042 327.13733,37.5892144 326.941143,40.7222964 Z M320.761287,35.611482 C320.5651,34.123268 319.927502,32.9875429 318.848474,32.2042724 C317.769446,31.4210019 316.641388,31.048954 315.464266,31.0881175 C314.247908,31.127281 313.060995,31.5776548 311.903492,32.4392523 C310.745989,33.3008499 310.069154,34.4953195 309.872967,36.0226969 L320.761287,35.611482 Z" id="Catch-Guide" fill="#FDE2B1"></path>
        </g>
    </g>
</svg>