<svg width="400" height="400" viewBox="0 0 400 400" fill="none" xmlns="http://www.w3.org/2000/svg">
<rect width="400" height="400" fill="white"/>
<path d="M179.824 247.636H205.392V246.358C205.818 219.938 212.636 208.432 231.386 196.713C250.136 185.314 261.216 168.908 261.216 145.364C261.216 112.125 236.926 87.8352 199.426 87.8352C164.909 87.8352 137.53 109.142 135.932 145.364H162.778C164.376 120.222 181.955 109.994 199.426 109.994C219.455 109.994 235.648 123.205 235.648 144.085C235.648 161.024 225.953 173.169 213.489 180.733C192.608 193.411 180.143 205.768 179.824 246.358V247.636ZM193.46 310.705C204.007 310.705 212.636 302.075 212.636 291.528C212.636 280.982 204.007 272.352 193.46 272.352C182.913 272.352 174.284 280.982 174.284 291.528C174.284 302.075 182.913 310.705 193.46 310.705Z" fill="black"/>
</svg>
